<svg width="748" height="774" viewBox="0 0 748 774" fill="none" xmlns="http://www.w3.org/2000/svg">
<circle cx="410.063" cy="398.063" r="337.063" fill="url(#paint0_linear_2608_7916)" fill-opacity="0.3"/>
<path opacity="0.996954" d="M18.7333 240.759L12.1059 252.862L0 259.481L12.1059 266.107L18.7333 278.21L25.3379 266.13L37.4514 259.504L25.3379 252.885L18.7333 240.759Z" fill="#5137E4"/>
<path opacity="0.996954" d="M617.956 0L611.329 12.1034L599.223 18.7219L611.329 25.348L617.956 37.4514L624.561 25.3708L636.674 18.7447L624.561 12.1263L617.956 0Z" fill="#5137E4"/>
<path opacity="0.996954" d="M655.407 735.652L648.78 747.756L636.674 754.374L648.78 761L655.407 773.104L662.012 761.023L674.125 754.397L662.012 747.779L655.407 735.652Z" fill="#5137E4"/>
<path d="M267.587 507.825C257.241 507.825 248.004 505.608 240.245 500.805C232.485 496.371 226.204 489.351 222.139 480.113C217.706 470.876 215.489 459.791 215.489 446.12V278H156V446.489C156 470.876 160.803 491.568 170.78 508.564C180.756 525.93 194.058 538.863 211.055 547.731C227.682 556.599 246.526 561.032 267.587 561.032C288.648 561.032 307.862 556.599 324.859 547.731C341.486 538.863 354.788 525.93 364.764 508.564C374.74 491.568 379.544 470.876 379.544 446.489V278H320.055V446.12C320.055 459.791 317.838 470.876 313.774 480.113C309.34 489.351 303.059 496.371 295.299 500.805C287.54 505.608 278.303 507.825 267.587 507.825Z" fill="#7BD5FF"/>
<g style="mix-blend-mode:multiply" opacity="0.8">
<path d="M499.137 410.648L400.482 556.599H465.513L532.022 456.835L597.792 556.599H664.671L565.277 409.54L654.325 278H589.294L532.761 363.723L476.229 278H408.981L499.137 410.648Z" fill="#5C43E7"/>
</g>
<defs>
<linearGradient id="paint0_linear_2608_7916" x1="217.455" y1="-40.6538" x2="926.357" y2="692.324" gradientUnits="userSpaceOnUse">
<stop stop-color="#B28DFF"/>
<stop offset="0.433195" stop-color="#8D89FF"/>
<stop offset="1" stop-color="#8ADDFF"/>
</linearGradient>
</defs>
</svg>
